<svg width="1651" height="300" fill="none" xmlns="http://www.w3.org/2000/svg"><path opacity=".1" d="M272.614 149.545c0 31.724-6.014 58.713-18.04 80.966-11.932 22.254-28.22 39.252-48.864 50.995-20.549 11.647-43.655 17.471-69.318 17.471-25.852 0-49.053-5.871-69.602-17.613-20.55-11.743-36.79-28.741-48.722-50.995C6.136 208.116.17 181.174.17 149.545c0-31.723 5.966-58.712 17.898-80.965C30 46.325 46.24 29.374 66.79 17.726 87.339 5.985 110.54.114 136.392.114c25.663 0 48.769 5.87 69.318 17.613 20.644 11.648 36.932 28.599 48.864 50.852 12.026 22.254 18.04 49.243 18.04 80.966zm-62.358 0c0-20.549-3.078-37.878-9.233-51.988-6.061-14.11-14.631-24.81-25.711-32.103-11.079-7.291-24.053-10.937-38.92-10.937s-27.841 3.646-38.92 10.937c-11.08 7.292-19.697 17.993-25.853 32.103-6.06 14.11-9.09 31.439-9.09 51.988 0 20.55 3.03 37.879 9.09 51.989 6.156 14.11 14.773 24.811 25.853 32.102 11.079 7.292 24.053 10.938 38.92 10.938s27.841-3.646 38.92-10.938c11.08-7.291 19.65-17.992 25.711-32.102 6.155-14.11 9.233-31.439 9.233-51.989zm364.595-43.607h-62.216c-1.136-8.05-3.456-15.2-6.96-21.45-3.504-6.344-8.002-11.742-13.495-16.192-5.492-4.451-11.837-7.86-19.034-10.228-7.102-2.367-14.82-3.551-23.153-3.551-15.057 0-28.172 3.74-39.347 11.222-11.174 7.386-19.839 18.181-25.994 32.386-6.155 14.11-9.233 31.25-9.233 51.42 0 20.739 3.078 38.163 9.233 52.273 6.25 14.11 14.962 24.763 26.136 31.96 11.175 7.197 24.101 10.796 38.779 10.796 8.238 0 15.862-1.089 22.869-3.267 7.102-2.178 13.4-5.351 18.892-9.517 5.493-4.262 10.038-9.423 13.636-15.483 3.694-6.061 6.25-12.974 7.671-20.739l62.216.284c-1.61 13.353-5.635 26.231-12.074 38.637-6.345 12.31-14.915 23.342-25.71 33.096-10.701 9.659-23.485 17.33-38.353 23.012-14.772 5.587-31.486 8.38-50.142 8.38-25.947 0-49.147-5.871-69.602-17.613-20.36-11.743-36.458-28.741-48.295-50.995-11.743-22.253-17.614-49.195-17.614-80.824 0-31.723 5.966-58.712 17.898-80.965 11.932-22.254 28.125-39.205 48.579-50.853C399.993 5.985 423.004.114 448.572.114c16.857 0 32.482 2.367 46.875 7.102 14.489 4.735 27.321 11.648 38.495 20.738 11.174 8.997 20.265 20.029 27.272 33.097 7.103 13.068 11.648 28.03 13.637 44.887zM798.643 4.091h61.506v188.92c0 21.212-5.066 39.773-15.199 55.682-10.038 15.909-24.1 28.315-42.187 37.216-18.087 8.807-39.157 13.21-63.21 13.21-24.148 0-45.266-4.403-63.353-13.21-18.087-8.901-32.149-21.307-42.187-37.216-10.038-15.909-15.057-34.47-15.057-55.682V4.091h61.506v183.665c0 11.079 2.414 20.928 7.244 29.545 4.924 8.618 11.837 15.388 20.739 20.313 8.901 4.924 19.27 7.386 31.108 7.386 11.931 0 22.301-2.462 31.108-7.386 8.901-4.925 15.767-11.695 20.596-20.313 4.924-8.617 7.386-18.466 7.386-29.545V4.091zM910.753 295V4.09h61.506v240.2h124.711V295H910.753zM1317.39 4.09h61.51v188.921c0 21.212-5.07 39.773-15.2 55.682-10.04 15.909-24.1 28.315-42.19 37.216-18.08 8.807-39.15 13.21-63.21 13.21-24.15 0-45.26-4.403-63.35-13.21-18.09-8.901-32.15-21.307-42.19-37.216-10.04-15.909-15.05-34.47-15.05-55.682V4.091h61.5v183.665c0 11.079 2.42 20.928 7.25 29.545 4.92 8.618 11.83 15.388 20.73 20.313 8.91 4.924 19.28 7.386 31.11 7.386 11.93 0 22.3-2.462 31.11-7.386 8.9-4.925 15.77-11.695 20.6-20.313 4.92-8.617 7.38-18.466 7.38-29.545V4.091zm269.93 83.666c-1.14-11.459-6.02-20.36-14.64-26.705-8.61-6.345-20.31-9.517-35.08-9.517-10.04 0-18.51 1.42-25.43 4.261-6.91 2.747-12.21 6.582-15.91 11.506-3.59 4.924-5.39 10.511-5.39 16.761-.19 5.209.9 9.754 3.26 13.637 2.47 3.882 5.83 7.244 10.09 10.085 4.26 2.746 9.18 5.161 14.77 7.244 5.59 1.989 11.55 3.694 17.9 5.114l26.14 6.25c12.68 2.841 24.33 6.629 34.94 11.364 10.6 4.735 19.79 10.558 27.56 17.471 7.76 6.913 13.77 15.057 18.04 24.432 4.35 9.375 6.58 20.123 6.67 32.244-.09 17.803-4.64 33.239-13.63 46.307-8.91 12.974-21.79 23.059-38.64 30.256-16.76 7.102-36.98 10.653-60.65 10.653-23.49 0-43.94-3.598-61.37-10.795-17.33-7.197-30.87-17.851-40.62-31.96-9.66-14.205-14.73-31.771-15.2-52.699h59.51c.67 9.754 3.46 17.897 8.39 24.432 5.01 6.439 11.69 11.316 20.02 14.63 8.43 3.22 17.95 4.83 28.56 4.83 10.41 0 19.46-1.515 27.13-4.546 7.76-3.03 13.77-7.244 18.04-12.642 4.26-5.397 6.39-11.6 6.39-18.608 0-6.534-1.94-12.026-5.83-16.477-3.78-4.451-9.37-8.239-16.76-11.364-7.29-3.125-16.24-5.965-26.84-8.522l-31.68-7.955c-24.53-5.966-43.89-15.293-58.1-27.983-14.2-12.689-21.26-29.782-21.16-51.278-.1-17.614 4.59-33.002 14.06-46.165 9.57-13.163 22.68-23.438 39.35-30.824 16.66-7.386 35.6-11.08 56.82-11.08 21.59 0 40.43 3.694 56.53 11.08 16.19 7.386 28.79 17.661 37.78 30.824 9 13.163 13.64 28.41 13.92 45.739h-58.94z" fill="url(#paint0_linear_7_78)"/><defs><linearGradient id="paint0_linear_7_78" x1="823.5" y1="-92" x2="823.5" y2="295" gradientUnits="userSpaceOnUse"><stop stop-color="#BC10D8"/><stop offset="1" stop-color="#5000FA" stop-opacity=".93"/></linearGradient></defs></svg>